<?xml version="1.0" encoding="utf-8"?>
<!-- Generator: Adobe Illustrator 21.0.0, SVG Export Plug-In . SVG Version: 6.00 Build 0)  -->
<svg version="1.1" id="Layer_1" xmlns="http://www.w3.org/2000/svg" xmlns:xlink="http://www.w3.org/1999/xlink" x="0px" y="0px"
	 viewBox="0 0 361.3 39.3" style="enable-background:new 0 0 361.3 39.3;" xml:space="preserve">
<style type="text/css">
	.st0{fill:#FFFFFF;}
</style>
<g>
	<path class="st0" d="M45.7,36.1l-9.3-12.7l-5.6,5.2v7.6h-2.3V2.7h2.3V26l14.5-13.7h2.7L38,22l10.3,14.1H45.7z"/>
	<path class="st0" d="M58,36.6c-1.1,0-2.1-0.2-3.1-0.6c-0.9-0.4-1.8-0.9-2.5-1.6c-0.7-0.7-1.3-1.4-1.7-2.3c-0.4-0.9-0.6-1.9-0.6-2.9
		s0.2-2,0.7-2.8c0.5-0.9,1.2-1.6,2-2.2c0.9-0.6,1.9-1.1,3.1-1.5c1.2-0.4,2.6-0.5,4-0.5c1.3,0,2.6,0.1,3.9,0.3
		c1.3,0.2,2.5,0.5,3.5,0.9v-2.3c0-2.3-0.6-4.1-1.9-5.4c-1.3-1.3-3-2-5.2-2c-1.2,0-2.4,0.2-3.7,0.7c-1.3,0.5-2.6,1.2-4,2.1L51.8,15
		c3.1-2.1,6-3.1,8.7-3.1c2.9,0,5.1,0.8,6.8,2.5c1.6,1.7,2.5,4,2.5,6.9v11.6c0,0.8,0.3,1.1,1,1.1v2.1c-0.2,0-0.3,0.1-0.5,0.1
		c-0.2,0-0.3,0-0.4,0c-0.6,0-1.1-0.2-1.5-0.6c-0.4-0.4-0.6-0.9-0.6-1.5v-2c-1.1,1.4-2.5,2.5-4.2,3.3C61.8,36.2,60,36.6,58,36.6z
		 M58.4,34.7c1.8,0,3.4-0.3,4.9-1c1.5-0.7,2.6-1.6,3.4-2.7c0.5-0.6,0.7-1.3,0.7-1.8V25c-1.1-0.4-2.2-0.7-3.4-1
		c-1.2-0.2-2.4-0.3-3.7-0.3c-1.2,0-2.3,0.1-3.3,0.4c-1,0.3-1.8,0.6-2.5,1.1c-0.7,0.5-1.2,1-1.6,1.7c-0.4,0.7-0.6,1.4-0.6,2.2
		c0,0.8,0.2,1.5,0.5,2.2c0.3,0.7,0.7,1.3,1.3,1.8s1.2,0.9,1.9,1.2C56.8,34.6,57.6,34.7,58.4,34.7z"/>
	<path class="st0" d="M88,14.4c-2.1,0.1-4,0.7-5.6,1.9c-1.6,1.2-2.7,2.9-3.4,5v14.9h-2.3V12.3h2.2v5.9c0.8-1.7,1.9-3,3.3-4.1
		c1.4-1.1,2.8-1.7,4.4-1.8c0.3,0,0.6,0,0.8,0c0.2,0,0.4,0,0.6,0V14.4z"/>
	<path class="st0" d="M92.5,2.7h2.3v28.7c0,0.9,0.3,1.6,0.8,2.1c0.5,0.5,1.2,0.8,2.1,0.8c0.3,0,0.7,0,1.2-0.1
		c0.5-0.1,0.9-0.2,1.3-0.3l0.5,1.8c-0.5,0.2-1.2,0.4-1.9,0.5c-0.8,0.1-1.4,0.2-2,0.2c-1.3,0-2.3-0.4-3.1-1.2
		c-0.8-0.8-1.2-1.8-1.2-3.1V2.7z"/>
	<path class="st0" d="M114.2,36.6c-1.7,0-3.2-0.3-4.6-1c-1.4-0.7-2.6-1.5-3.7-2.7c-1-1.1-1.8-2.4-2.4-3.9c-0.6-1.5-0.9-3.1-0.9-4.7
		c0-1.7,0.3-3.3,0.9-4.8c0.6-1.5,1.4-2.8,2.5-3.9c1-1.1,2.3-2,3.7-2.7c1.4-0.7,3-1,4.6-1c1.6,0,3.2,0.3,4.6,1
		c1.4,0.7,2.6,1.6,3.7,2.7c1.1,1.1,1.9,2.4,2.5,3.9c0.6,1.5,0.9,3.1,0.9,4.8c0,1.6-0.3,3.2-0.9,4.7c-0.6,1.5-1.4,2.8-2.5,3.9
		c-1,1.1-2.3,2-3.7,2.7C117.4,36.2,115.8,36.6,114.2,36.6z M104.8,24.3c0,1.4,0.2,2.7,0.7,4c0.5,1.2,1.2,2.3,2,3.2
		c0.8,0.9,1.8,1.6,3,2.2c1.1,0.5,2.3,0.8,3.6,0.8c1.3,0,2.5-0.3,3.6-0.8c1.1-0.5,2.1-1.3,3-2.2c0.9-0.9,1.5-2,2-3.3
		c0.5-1.2,0.7-2.6,0.7-4c0-1.4-0.2-2.7-0.7-4c-0.5-1.2-1.2-2.3-2-3.3c-0.9-0.9-1.8-1.7-3-2.2c-1.1-0.5-2.3-0.8-3.6-0.8
		s-2.5,0.3-3.6,0.8c-1.1,0.5-2.1,1.3-3,2.2c-0.8,0.9-1.5,2.1-2,3.3C105.1,21.6,104.8,22.9,104.8,24.3z"/>
	<path class="st0" d="M139.6,36.6c-2,0-4-0.3-5.9-1c-1.9-0.6-3.6-1.6-4.9-2.7L131,29c1.5,1,2.9,1.8,4.3,2.4c1.4,0.5,2.8,0.8,4.1,0.8
		c1.2,0,2.2-0.2,2.9-0.7c0.7-0.5,1.1-1.1,1.1-2c0-0.9-0.4-1.5-1.2-1.9c-0.8-0.4-2.2-0.9-4-1.4c-1.6-0.4-2.9-0.8-4-1.2
		c-1.1-0.4-2-0.8-2.7-1.4c-0.7-0.5-1.2-1.1-1.5-1.7c-0.3-0.7-0.5-1.4-0.5-2.4c0-1.2,0.2-2.3,0.7-3.3c0.5-1,1.1-1.8,2-2.5
		c0.9-0.7,1.9-1.2,3-1.6s2.4-0.5,3.7-0.5c1.8,0,3.5,0.3,5.1,0.8c1.6,0.5,3,1.4,4.3,2.5l-2.5,3.7c-1.2-0.9-2.4-1.6-3.5-2
		c-1.1-0.4-2.3-0.6-3.4-0.6c-1,0-1.9,0.2-2.6,0.6c-0.7,0.4-1.1,1.1-1.1,2.1c0,0.4,0.1,0.8,0.3,1.1c0.2,0.3,0.4,0.5,0.8,0.7
		c0.4,0.2,0.8,0.4,1.4,0.6c0.6,0.2,1.3,0.4,2.2,0.6c1.6,0.4,3.1,0.9,4.2,1.3c1.2,0.4,2.1,0.9,2.9,1.5c0.7,0.5,1.3,1.2,1.6,1.9
		c0.4,0.7,0.5,1.6,0.5,2.6c0,2.4-0.9,4.2-2.6,5.6C145,35.9,142.6,36.6,139.6,36.6z M135.1,2.7l3.9,2.9l3.9-2.9l3.2,1.5l-4.9,4.6
		h-4.4l-4.9-4.6L135.1,2.7z"/>
	<path class="st0" d="M167.7,34.9c-0.8,0.4-1.8,0.7-3,1.1c-1.2,0.4-2.4,0.5-3.8,0.5c-0.9,0-1.7-0.1-2.4-0.3c-0.7-0.2-1.4-0.6-2-1
		c-0.6-0.5-1-1.1-1.4-1.8c-0.3-0.7-0.5-1.7-0.5-2.7V16.8h-3.2v-4.7h3.2V4.3h6.1v7.8h5v4.7h-5v11.7c0,0.9,0.2,1.5,0.7,1.8
		c0.4,0.4,1,0.5,1.6,0.5c0.6,0,1.3-0.1,1.9-0.3c0.6-0.2,1.1-0.4,1.5-0.5L167.7,34.9z"/>
	<path class="st0" d="M181.4,36.6c-1.9,0-3.7-0.3-5.2-1c-1.6-0.7-2.9-1.5-4-2.7c-1.1-1.1-1.9-2.4-2.5-3.9c-0.6-1.5-0.9-3.1-0.9-4.7
		c0-1.7,0.3-3.3,0.9-4.8c0.6-1.5,1.4-2.8,2.5-4s2.4-2.1,4-2.7c1.6-0.7,3.3-1,5.3-1c2,0,3.7,0.3,5.2,1c1.5,0.7,2.9,1.6,3.9,2.7
		c1.1,1.1,1.9,2.4,2.5,3.9c0.6,1.5,0.8,3.1,0.8,4.7c0,0.4,0,0.8,0,1.1c0,0.4-0.1,0.7-0.1,0.9h-18.6c0.1,0.9,0.3,1.8,0.7,2.5
		c0.4,0.7,0.8,1.4,1.4,1.9c0.6,0.5,1.2,0.9,2,1.2c0.7,0.3,1.5,0.4,2.3,0.4c1.2,0,2.4-0.3,3.5-0.9c1.1-0.6,1.8-1.4,2.2-2.4l5.3,1.5
		c-0.9,1.8-2.3,3.3-4.2,4.5C186.4,36,184.1,36.6,181.4,36.6z M187.7,22.1c-0.2-1.8-0.8-3.2-2-4.3c-1.2-1.1-2.6-1.6-4.3-1.6
		c-0.8,0-1.6,0.1-2.3,0.4c-0.7,0.3-1.4,0.7-1.9,1.2c-0.5,0.5-1,1.1-1.4,1.9c-0.4,0.7-0.6,1.5-0.6,2.4H187.7z"/>
	<path class="st0" d="M214.1,36.1l-7-10.4l-3.3,3.3v7.1h-6.1V2.7h6.1V23l9.6-10.8h6.6l-8.9,10.2l9.6,13.8H214.1z"/>
	<path class="st0" d="M233.1,36.6c-2,0-3.7-0.3-5.3-1c-1.6-0.7-2.9-1.6-4-2.7c-1.1-1.1-1.9-2.5-2.5-4c-0.6-1.5-0.9-3.1-0.9-4.7
		c0-1.7,0.3-3.3,0.9-4.8c0.6-1.5,1.4-2.8,2.5-4c1.1-1.1,2.4-2.1,4-2.7c1.6-0.7,3.3-1,5.3-1c2,0,3.7,0.3,5.2,1
		c1.5,0.7,2.9,1.6,3.9,2.7c1.1,1.1,1.9,2.5,2.5,4c0.6,1.5,0.9,3.1,0.9,4.8c0,1.6-0.3,3.2-0.9,4.7c-0.6,1.5-1.4,2.8-2.5,4
		c-1.1,1.1-2.4,2.1-3.9,2.7C236.8,36.2,235.1,36.6,233.1,36.6z M226.9,24.2c0,1.1,0.2,2,0.5,2.9c0.3,0.9,0.8,1.6,1.3,2.3
		c0.6,0.6,1.2,1.1,2,1.5c0.8,0.4,1.6,0.5,2.5,0.5c0.9,0,1.7-0.2,2.5-0.5c0.8-0.4,1.4-0.8,2-1.5c0.6-0.6,1-1.4,1.3-2.3
		c0.3-0.9,0.5-1.9,0.5-2.9c0-1-0.2-2-0.5-2.9c-0.3-0.9-0.8-1.6-1.3-2.3c-0.6-0.6-1.2-1.1-2-1.5c-0.8-0.4-1.6-0.5-2.5-0.5
		c-0.9,0-1.7,0.2-2.5,0.5c-0.8,0.4-1.4,0.9-2,1.5c-0.6,0.6-1,1.4-1.3,2.3C227,22.2,226.9,23.1,226.9,24.2z"/>
	<path class="st0" d="M255.4,36.1l-8.8-24h6.3l6.1,19l6.1-19h5.8l-8.8,24H255.4z"/>
	<path class="st0" d="M274.1,8.8V2.7h6.1v6.1H274.1z M274.1,36.1v-24h6.1v24H274.1z"/>
	<path class="st0" d="M284.3,24.1c0-1.7,0.3-3.3,0.9-4.8c0.6-1.5,1.4-2.8,2.5-3.9c1.1-1.1,2.4-2,4-2.7c1.6-0.7,3.3-1,5.3-1
		c2.6,0,4.9,0.6,6.7,1.7c1.8,1.1,3.2,2.6,4.1,4.4l-6,1.8c-0.5-0.9-1.2-1.6-2.1-2c-0.9-0.5-1.8-0.7-2.8-0.7c-0.9,0-1.7,0.2-2.5,0.5
		c-0.8,0.4-1.4,0.8-2,1.5c-0.6,0.6-1,1.4-1.3,2.3c-0.3,0.9-0.5,1.9-0.5,2.9c0,1.1,0.2,2,0.5,2.9c0.3,0.9,0.8,1.6,1.4,2.3
		c0.6,0.6,1.2,1.1,2,1.5c0.8,0.4,1.6,0.5,2.4,0.5c1.1,0,2.1-0.3,3-0.8c0.9-0.5,1.6-1.2,1.9-2l6,1.8c-0.8,1.8-2.2,3.3-4.1,4.5
		c-1.9,1.2-4.2,1.7-6.8,1.7c-2,0-3.7-0.3-5.3-1c-1.6-0.7-2.9-1.6-4-2.7c-1.1-1.1-1.9-2.5-2.5-4C284.6,27.3,284.3,25.8,284.3,24.1z
		 M298.5,9.3l-3.9-1.2l2.5-5.5h5.7L298.5,9.3z"/>
	<path class="st0" d="M19.3,3.1l1.1,1.5l-15.6,15l15.6,15l-1.1,1.5L2,19.6L19.3,3.1z"/>
	<path class="st0" d="M314.7,37.4l13.6-35.5h2.1l-13.6,35.5H314.7z"/>
	<path class="st0" d="M359.3,19.6l-17.4,16.5l-1.1-1.5l15.6-15l-15.6-15l1.1-1.5L359.3,19.6z"/>
</g>
</svg>
